REM DIRINDEX 1\2,1\3,1\4,1\5
REM DIRNAME "folder01","folder02","folder03","folder04","folder05"
TITLE ""
FILE "P1Q_t_0810-0819.mp3" MP3
  TRACK 01 AUDIO
    TITLE "3:cjc173_3375"
    INDEX 01 00:00:00
  TRACK 02 AUDIO
    TITLE "0:"
    INDEX 01 00:01:08
  TRACK 03 AUDIO
    TITLE "4:cjc173_3376"
    INDEX 01 00:01:29
  TRACK 04 AUDIO
    TITLE "0:"
    INDEX 01 00:05:06
  TRACK 05 AUDIO
    TITLE "5:cjc173_3377"
    INDEX 01 00:05:25
  TRACK 06 AUDIO
    TITLE "0:"
    INDEX 01 00:10:01
  TRACK 07 AUDIO
    TITLE "3:cjc173_3378"
    INDEX 01 00:10:48
  TRACK 08 AUDIO
    TITLE "0:"
    INDEX 01 00:11:67
  TRACK 09 AUDIO
    TITLE "4:cjc173_3379"
    INDEX 01 00:12:12
  TRACK 10 AUDIO
    TITLE "0:"
    INDEX 01 00:14:50
  TRACK 11 AUDIO
    TITLE "5:cjc173_3380"
    INDEX 01 00:14:69
  TRACK 12 AUDIO
    TITLE "0:"
    INDEX 01 00:19:15
  TRACK 13 AUDIO
    TITLE "3:cjc173_3381"
    INDEX 01 00:19:63
  TRACK 14 AUDIO
    TITLE "0:"
    INDEX 01 00:21:10
  TRACK 15 AUDIO
    TITLE "4:cjc173_3382"
    INDEX 01 00:21:30
  TRACK 16 AUDIO
    TITLE "0:"
    INDEX 01 00:24:25
  TRACK 17 AUDIO
    TITLE "5:cjc173_3383"
    INDEX 01 00:24:46
  TRACK 18 AUDIO
    TITLE "0:"
    INDEX 01 00:28:13
  TRACK 19 AUDIO
    TITLE "3:cjc173_3384"
    INDEX 01 00:28:60
  TRACK 20 AUDIO
    TITLE "0:"
    INDEX 01 00:30:04
  TRACK 21 AUDIO
    TITLE "4:cjc173_3385"
    INDEX 01 00:30:25
  TRACK 22 AUDIO
    TITLE "0:"
    INDEX 01 00:33:23
  TRACK 23 AUDIO
    TITLE "5:cjc173_3386"
    INDEX 01 00:33:43
  TRACK 24 AUDIO
    TITLE "0:"
    INDEX 01 00:37:27
  TRACK 25 AUDIO
    TITLE "3:cjc173_3387"
    INDEX 01 00:37:74
  TRACK 26 AUDIO
    TITLE "0:"
    INDEX 01 00:39:20
  TRACK 27 AUDIO
    TITLE "4:cjc173_3388"
    INDEX 01 00:39:42
  TRACK 28 AUDIO
    TITLE "0:"
    INDEX 01 00:40:63
  TRACK 29 AUDIO
    TITLE "5:cjc173_3389"
    INDEX 01 00:41:07
  TRACK 30 AUDIO
    TITLE "0:"
    INDEX 01 00:45:50
  TRACK 31 AUDIO
    TITLE "3:cjc173_3390"
    INDEX 01 00:46:20
  TRACK 32 AUDIO
    TITLE "0:"
    INDEX 01 00:47:51
  TRACK 33 AUDIO
    TITLE "4:cjc173_3391"
    INDEX 01 00:47:73
  TRACK 34 AUDIO
    TITLE "0:"
    INDEX 01 00:50:63
  TRACK 35 AUDIO
    TITLE "5:cjc173_3392"
    INDEX 01 00:51:08
  TRACK 36 AUDIO
    TITLE "0:"
    INDEX 01 00:56:03
  TRACK 37 AUDIO
    TITLE "3:cjc173_3393"
    INDEX 01 00:56:50
  TRACK 38 AUDIO
    TITLE "0:"
    INDEX 01 00:58:00
  TRACK 39 AUDIO
    TITLE "4:cjc173_3394"
    INDEX 01 00:58:19
  TRACK 40 AUDIO
    TITLE "0:"
    INDEX 01 01:01:37
  TRACK 41 AUDIO
    TITLE "5:cjc173_3395"
    INDEX 01 01:01:59
  TRACK 42 AUDIO
    TITLE "0:"
    INDEX 01 01:06:60
  TRACK 43 AUDIO
    TITLE "3:cjc173_3396"
    INDEX 01 01:07:30
  TRACK 44 AUDIO
    TITLE "0:"
    INDEX 01 01:08:55
  TRACK 45 AUDIO
    TITLE "4:cjc173_3397"
    INDEX 01 01:09:02
  TRACK 46 AUDIO
    TITLE "0:"
    INDEX 01 01:12:29
  TRACK 47 AUDIO
    TITLE "5:cjc173_3398"
    INDEX 01 01:12:51
  TRACK 48 AUDIO
    TITLE "0:"
    INDEX 01 01:17:29
  TRACK 49 AUDIO
    TITLE "3:cjc173_3399"
    INDEX 01 01:18:01
  TRACK 50 AUDIO
    TITLE "0:"
    INDEX 01 01:19:10
  TRACK 51 AUDIO
    TITLE "4:cjc173_3400"
    INDEX 01 01:19:33
  TRACK 52 AUDIO
    TITLE "0:"
    INDEX 01 01:23:06
  TRACK 53 AUDIO
    TITLE "5:cjc173_3401"
    INDEX 01 01:23:25
  TRACK 54 AUDIO
    TITLE "0:"
    INDEX 01 01:27:54
  TRACK 55 AUDIO
    TITLE "3:cjc173_3402"
    INDEX 01 01:28:26
  TRACK 56 AUDIO
    TITLE "0:"
    INDEX 01 01:29:32
  TRACK 57 AUDIO
    TITLE "4:cjc173_3403"
    INDEX 01 01:29:53
  TRACK 58 AUDIO
    TITLE "0:"
    INDEX 01 01:32:34
  TRACK 59 AUDIO
    TITLE "5:cjc173_3404"
    INDEX 01 01:32:54
  TRACK 60 AUDIO
    TITLE "0:"
    INDEX 01 01:38:23
